<svg width="24" height="23" viewBox="0 0 24 23" fill="none" xmlns="http://www.w3.org/2000/svg">
<circle cx="12.1667" cy="11.5" r="11" stroke="url(#paint0_linear)"/>
<path d="M9.15675 13.25L10.3467 12.83C10.3934 13.194 10.5521 13.4973 10.8227 13.74C11.0934 13.9733 11.4574 14.09 11.9147 14.09C12.2694 14.09 12.5494 14.006 12.7547 13.838C12.9601 13.6607 13.0627 13.446 13.0627 13.194C13.0627 12.746 12.7734 12.4567 12.1947 12.326L11.0467 12.074C10.5241 11.962 10.1134 11.738 9.81475 11.402C9.51608 11.066 9.36675 10.66 9.36675 10.184C9.36675 9.60533 9.60008 9.106 10.0667 8.686C10.5427 8.266 11.1074 8.056 11.7607 8.056C12.1901 8.056 12.5727 8.12133 12.9087 8.252C13.2447 8.37333 13.5061 8.53667 13.6927 8.742C13.8794 8.94733 14.0194 9.13867 14.1127 9.316C14.2061 9.49333 14.2761 9.67533 14.3227 9.862L13.1607 10.296C13.1421 10.184 13.1094 10.0767 13.0627 9.974C13.0161 9.862 12.9414 9.74067 12.8387 9.61C12.7454 9.47933 12.6054 9.37667 12.4187 9.302C12.2321 9.218 12.0127 9.176 11.7607 9.176C11.4341 9.176 11.1634 9.26467 10.9487 9.442C10.7434 9.61933 10.6407 9.82933 10.6407 10.072C10.6407 10.5013 10.8974 10.772 11.4107 10.884L12.5027 11.122C13.1001 11.2527 13.5574 11.4953 13.8747 11.85C14.2014 12.1953 14.3647 12.62 14.3647 13.124C14.3647 13.656 14.1454 14.1367 13.7067 14.566C13.2774 14.9953 12.6754 15.21 11.9007 15.21C11.0701 15.21 10.4214 15.0047 9.95475 14.594C9.48808 14.174 9.22208 13.726 9.15675 13.25Z" fill="url(#paint1_linear)"/>
<defs>
<linearGradient id="paint0_linear" x1="2.06069" y1="1.51315" x2="23.6314" y2="3.19943" gradientUnits="userSpaceOnUse">
<stop stop-color="#DA1E5E"/>
<stop offset="1" stop-color="#F69322"/>
</linearGradient>
<linearGradient id="paint1_linear" x1="9.09099" y1="2.18421" x2="15.69" y2="2.38482" gradientUnits="userSpaceOnUse">
<stop stop-color="#DA1E5E"/>
<stop offset="1" stop-color="#F69322"/>
</linearGradient>
</defs>
</svg>
