<svg width="70" height="70" viewBox="0 0 70 70" fill="none" xmlns="http://www.w3.org/2000/svg">
<path d="M35 31.8184V47.7274" stroke="#F6D62C" stroke-width="5" stroke-linecap="round" stroke-linejoin="round"/>
<path d="M34.9992 64.1658C51.1075 64.1658 64.1659 51.1075 64.1659 34.9992C64.1659 18.8909 51.1075 5.83252 34.9992 5.83252C18.8909 5.83252 5.83252 18.8909 5.83252 34.9992C5.83252 51.1075 18.8909 64.1658 34.9992 64.1658Z" stroke="#F6D62C" stroke-width="5" stroke-linecap="round" stroke-linejoin="round"/>
<path d="M31.5 22.5911C31.5 24.5241 33.067 26.0911 35 26.0911C36.933 26.0911 38.5 24.5241 38.5 22.5911H31.5ZM38.5 22.2729C38.5 20.34 36.933 18.7729 35 18.7729C33.067 18.7729 31.5 20.34 31.5 22.2729H38.5ZM38.5 22.5911V22.2729H31.5V22.5911H38.5Z" fill="#F6D62C"/>
</svg>
