<svg width="46" height="47" viewBox="0 0 46 47" fill="none" xmlns="http://www.w3.org/2000/svg">
<rect y="0.5" width="46" height="46" rx="5" fill="#49BC34" fill-opacity="0.15"/>
<path d="M22.3652 11.9862H17.6915C13.8477 11.9862 11.4377 14.7075 11.4377 18.56V28.9525C11.4377 32.805 13.8365 35.5262 17.6915 35.5262H28.7215C32.5777 35.5262 34.9765 32.805 34.9765 28.9525V23.9175" stroke="#48BC33" stroke-width="2" stroke-linecap="round" stroke-linejoin="round"/>
<path fill-rule="evenodd" clip-rule="evenodd" d="M19.0345 22.1512L28.3758 12.81C29.5395 11.6475 31.4258 11.6475 32.5895 12.81L34.1108 14.3312C35.2745 15.495 35.2745 17.3825 34.1108 18.545L24.7245 27.9312C24.2158 28.44 23.5258 28.7262 22.8058 28.7262H18.1233L18.2408 24.0012C18.2583 23.3062 18.542 22.6437 19.0345 22.1512Z" stroke="#48BC33" stroke-width="2" stroke-linecap="round" stroke-linejoin="round"/>
<path d="M26.9563 14.2532L32.6638 19.9607" stroke="#48BC33" stroke-width="2" stroke-linecap="round" stroke-linejoin="round"/>
</svg>
